{"title":"Piggy 2012 BRRip XViD juggs","uid":8258245,"size":744610071,"categoryP":"video","categoryS":"movies","magnet":"?xt=urn:btih:22e1f51aaf65c90c36210a6b7686a64a0a8808a7&amp;dn=Piggy+2012+BRRip+XViD+juggs&amp;tr=udp%3A%2F%2Ftracker.openbittorrent.com%3A80&amp;tr=udp%3A%2F%2Fopen.demonii.com%3A1337&amp;tr=udp%3A%2F%2Ftracker.coppersurfer.tk%3A6969&amp;tr=udp%3A%2F%2Fexodus.desync.com%3A6969","seeders":4,"leechers":1,"uploader":"juggs99","files":3,"time":1363307950,"description":"Format : AVI\nFormat/Info : Audio Video Interleave\nFile size : 701 MiB\nDuration : 1h 46mn\nOverall bit rate : 922 Kbps\nWriting library : VirtualDub build 32842/release\n\nVideo\nID : 0\nFormat : MPEG-4 Visual\nFormat profile : Advanced Simple@L5\nFormat settings, BVOP : 4\nFormat settings, QPel : No\nFormat settings, GMC : No warppoints\nFormat settings, Matrix : Default (H.263)\nMuxing mode : Packed bitstream\nCodec ID : XVID\nCodec ID/Hint : XviD\nDuration : 1h 46mn\nBit rate : 785 Kbps\nWidth : 640 pixels\nHeight : 272 pixels\nDisplay aspect ratio : 2.35:1\nFrame rate : 24.000 fps\nColor space : YUV\nChroma subsampling : 4:2:0\nBit depth : 8 bits\nScan type : Progressive\nCompression mode : Lossy\nBits/(Pixel*Frame) : 0.188\nStream size : 597 MiB (85%)\nWriting library : XviD 64\n\nAudio\nID : 1\nFormat : MPEG Audio\nFormat version : Version 1\nFormat profile : Layer 3\nMode : Joint stereo\nMode extension : MS Stereo\nCodec ID : 55\nCodec ID/Hint : MP3\nDuration : 1h 46mn\nBit rate mode : Constant\nBit rate : 128 Kbps\nChannel(s) : 2 channels\nSampling rate : 44.1 KHz\nCompression mode : Lossy\nStream size : 97.3 MiB (14%)\nAlignment : Split accross interleaves\nInterleave, duration : 42 ms (1.00 video frame)\nInterleave, preload duration : 500 ms\nWriting library : LAME3.98\n\n\nPlot\nLondon, modern day: Joe, a mild mannered young man is bored by his life. When his beloved brother is murdered Joe finds solace in Piggy, one of his brother's old friends. Piggy helps Joe to cope with grief, intent on saving him and helping him get justice for his brother's killing. As their friendship grows Joe finds himself in an increasing dangerous and murky world of violence and revenge.\n\n &lt;a href=&quot;\nhttp://www.shotpix.com/images/15510981187044551269.png&quot; rel=&quot;nofollow&quot; target=&quot;_NEW&quot;&gt;\nhttp://www.shotpix.com/images/15510981187044551269.png&lt;/a&gt; &lt;a href=&quot;\nhttp://www.shotpix.com/images/32341952224423426359.png&quot; rel=&quot;nofollow&quot; target=&quot;_NEW&quot;&gt;\nhttp://www.shotpix.com/images/32341952224423426359.png&lt;/a&gt; &lt;a href=&quot;\nhttp://www.shotpix.com/images/72600718420357639025.png&quot; rel=&quot;nofollow&quot; target=&quot;_NEW&quot;&gt;\nhttp://www.shotpix.com/images/72600718420357639025.png&lt;/a&gt; &lt;a href=&quot;\nhttp://www.shotpix.com/images/99876357171586991108.png&quot; rel=&quot;nofollow&quot; target=&quot;_NEW&quot;&gt;\nhttp://www.shotpix.com/images/99876357171586991108.png&lt;/a&gt;","torrent":{"xt":"urn:btih:22e1f51aaf65c90c36210a6b7686a64a0a8808a7","amp;dn":"Piggy+2012+BRRip+XViD+juggs","amp;tr":["udp%3A%2F%2Ftracker.openbittorrent.com%3A80","udp%3A%2F%2Fopen.demonii.com%3A1337","udp%3A%2F%2Ftracker.coppersurfer.tk%3A6969","udp%3A%2F%2Fexodus.desync.com%3A6969"],"infoHash":"22e1f51aaf65c90c36210a6b7686a64a0a8808a7","infoHashBuffer":{"type":"Buffer","data":[34,225,245,26,175,101,201,12,54,33,10,107,118,134,166,74,10,136,8,167]},"announce":[],"urlList":[]}}